<svg width="16" height="16" viewBox="0 0 16 16" fill="none" xmlns="http://www.w3.org/2000/svg">
<rect width="16" height="16" rx="8" fill="white"/>
<path d="M14.8333 9.33342C14.8333 11.6346 12.9679 13.5001 10.6667 13.5001C8.36548 13.5001 6.5 11.6346 6.5 9.33342C6.5 7.03223 8.36548 5.16675 10.6667 5.16675C12.9679 5.16675 14.8333 7.03223 14.8333 9.33342Z" stroke="#221533"/>
<path d="M5.50002 11.3334C5.50002 12.53 4.52997 13.5001 3.33335 13.5001C2.13674 13.5001 1.16669 12.53 1.16669 11.3334C1.16669 10.1368 2.13674 9.16675 3.33335 9.16675C4.52997 9.16675 5.50002 10.1368 5.50002 11.3334Z" stroke="#221533"/>
<path d="M10 10L11.0667 4.13334C11.2 3.40001 12 3.00001 12.6667 3.33334V3.33334" stroke="#221533" stroke-linecap="round"/>
<path d="M11 3.66659C11 3.66659 9.05392 3.28253 7.00004 4.66667C4.32952 6.46637 3.33337 11.3333 3.33337 11.3333" stroke="#221533" stroke-linecap="round"/>
<path d="M7.33337 2.66675L4.66671 2.66675" stroke="#221533" stroke-linecap="round"/>
</svg>
