<svg width="24" height="24" viewBox="0 0 24 24" fill="none" xmlns="http://www.w3.org/2000/svg">
<path d="M14.024 9.97599L9.97602 14.024C9.45602 13.504 9.13602 12.792 9.13602 12C9.13602 10.416 10.416 9.13599 12 9.13599C12.792 9.13599 13.504 9.45599 14.024 9.97599Z" stroke="#868098" stroke-width="1.5" stroke-linecap="square" stroke-linejoin="round"/>
<path d="M16.656 7.01603C15.256 5.96003 13.656 5.38403 12 5.38403C9.17603 5.38403 6.54403 7.04803 4.71203 9.92803C3.99203 11.056 3.99203 12.952 4.71203 14.08C5.34403 15.072 6.08003 15.928 6.88003 16.616" stroke="#868098" stroke-width="1.5" stroke-linecap="square" stroke-linejoin="round"/>
<path d="M9.13602 18.024C10.048 18.408 11.016 18.616 12 18.616C14.824 18.616 17.456 16.952 19.288 14.072C20.008 12.944 20.008 11.048 19.288 9.92002C19.024 9.50402 18.736 9.11202 18.44 8.74402" stroke="#868098" stroke-width="1.5" stroke-linecap="square" stroke-linejoin="round"/>
<path d="M14.808 12.56C14.6 13.688 13.68 14.608 12.552 14.816" stroke="#868098" stroke-width="1.5" stroke-linecap="square" stroke-linejoin="round"/>
<path d="M9.976 14.024L4 20" stroke="#868098" stroke-width="1.5" stroke-linecap="square" stroke-linejoin="round"/>
<path d="M20 4L14.024 9.976" stroke="#868098" stroke-width="1.5" stroke-linecap="square" stroke-linejoin="round"/>
</svg>
