<svg width="24" height="24" viewBox="0 0 24 24" fill="none" xmlns="http://www.w3.org/2000/svg">
<path d="M14.9269 12.0042C14.9269 13.6792 13.6188 15.0326 12 15.0326C10.3812 15.0326 9.07306 13.6792 9.07306 12.0042C9.07306 10.3293 10.3812 8.97583 12 8.97583C13.6188 8.97583 14.9269 10.3293 14.9269 12.0042Z" stroke="white" stroke-width="1.5" stroke-linecap="round" stroke-linejoin="round"/>
<path d="M12 19C14.8861 19 17.5759 17.2405 19.4481 14.1952C20.184 13.0024 20.184 10.9976 19.4481 9.80483C17.5759 6.75952 14.8861 5 12 5C9.11395 5 6.42412 6.75952 4.55187 9.80483C3.81604 10.9976 3.81604 13.0024 4.55187 14.1952C6.42412 17.2405 9.11395 19 12 19Z" stroke="white" stroke-width="1.5" stroke-linecap="round" stroke-linejoin="round"/>
</svg>
