<svg width="14" height="14" viewBox="0 0 14 14" fill="none" xmlns="http://www.w3.org/2000/svg">
<path d="M7.97301 2.22436L8.96301 4.20436C9.09801 4.47999 9.45801 4.74436 9.76176 4.79499L11.5561 5.09311C12.7036 5.28436 12.9736 6.11686 12.1468 6.93811L10.7518 8.33311C10.5155 8.56936 10.3861 9.02499 10.4593 9.35124L10.8586 11.0781C11.1736 12.445 10.448 12.9737 9.23864 12.2594L7.55676 11.2637C7.25301 11.0837 6.75239 11.0837 6.44301 11.2637L4.76114 12.2594C3.55739 12.9737 2.82614 12.4394 3.14114 11.0781L3.54051 9.35124C3.61364 9.02499 3.48426 8.56936 3.24801 8.33311L1.85301 6.93811C1.03176 6.11686 1.29614 5.28436 2.44364 5.09311L4.23801 4.79499C4.53614 4.74436 4.89614 4.47999 5.03114 4.20436L6.02114 2.22436C6.56114 1.14999 7.43864 1.14999 7.97301 2.22436Z" fill="#221533" stroke="#221533" stroke-width="1.5" stroke-linecap="round" stroke-linejoin="round"/>
</svg>
