<svg width="312" height="40" viewBox="0 0 312 40" fill="none" xmlns="http://www.w3.org/2000/svg">
<path opacity="0.3" d="M0 18.5289L312 18.529" stroke="#221533" stroke-width="0.5"/>
<rect x="310" y="16.5289" width="2" height="2" fill="#221533"/>
<path d="M203 18.5289H178.53C177.465 18.5289 176.443 18.9539 175.692 19.7097L156.002 39.5289L136.234 19.7046C135.484 18.9519 134.465 18.5289 133.402 18.5289H114" stroke="#221533" stroke-width="0.5"/>
<rect y="-0.352901" width="24.7125" height="24.7125" transform="matrix(-0.708409 -0.705802 0.708409 -0.705802 156.111 35.8311)" fill="white" stroke="#221533" stroke-width="0.5"/>
<path fill-rule="evenodd" clip-rule="evenodd" d="M156.611 23.4875L158.611 24.7511L159.278 24.7511L159.278 17.3719L161.056 18.5289L159.722 15.6482L156.611 12.3067L156.611 14.9733L156.611 15.5352L156.611 16.4548L156.611 22.4443L156.611 23.4875Z" fill="#221533"/>
<path d="M152.833 12.3066L154.833 13.6014L154.833 14.6703L154.833 19.4178L152.166 16.9598L152.166 12.3066L152.833 12.3066Z" fill="#221533"/>
<path d="M152.611 19.4484L154.833 21.5224L154.833 24.751L151.722 21.4095L150.389 18.5288L152.611 19.4484Z" fill="#221533"/>
</svg>
